<svg xmlns="http://www.w3.org/2000/svg" width="14" height="13" viewBox="0 0 14 13" fill="none">
                                        <g clip-path="url(#clip0_41_1706)">
                                            <path d="M7 0C8.72391 0 10.3772 0.684819 11.5962 1.90381C12.8152 3.12279 13.5 4.77609 13.5 6.5C13.5 8.22391 12.8152 9.87721 11.5962 11.0962C10.3772 12.3152 8.72391 13 7 13C5.27609 13 3.62279 12.3152 2.40381 11.0962C1.18482 9.87721 0.5 8.22391 0.5 6.5C0.5 4.77609 1.18482 3.12279 2.40381 1.90381C3.62279 0.684819 5.27609 0 7 0V0ZM7 1C6.27773 1 5.56253 1.14226 4.89524 1.41866C4.22795 1.69506 3.62163 2.10019 3.11091 2.61091C2.60019 3.12163 2.19506 3.72795 1.91866 4.39524C1.64226 5.06253 1.5 5.77773 1.5 6.5C1.5 7.22227 1.64226 7.93747 1.91866 8.60476C2.19506 9.27205 2.60019 9.87837 3.11091 10.3891C3.62163 10.8998 4.22795 11.3049 4.89524 11.5813C5.56253 11.8577 6.27773 12 7 12C8.45869 12 9.85764 11.4205 10.8891 10.3891C11.9205 9.35764 12.5 7.95869 12.5 6.5C12.5 5.04131 11.9205 3.64236 10.8891 2.61091C9.85764 1.57946 8.45869 1 7 1Z" fill="#333333"></path>
                                            <path d="M7.5 3H6.5V7H10.5V6.024L7.5 6V3Z" fill="#333333"></path>
                                        </g>
                                    </svg>