<svg xmlns="http://www.w3.org/2000/svg" width="17" height="14" viewBox="0 0 17 14" fill="none">
                                                <path d="M16.4 2.6H13.6V0H13V2.6H10.3V3.4H13V6H13.6V3.4H16.4V2.6Z" fill="#F61C0D"></path>
                                                <path d="M7.3 7.7C6.9 7.5 6.2 6.8 6.2 6.4C6.2 6 6.3 5.7 7 5.2C7.7 4.7 8.2 4 8.2 3.1C8.2 2 7.7 1 6.9 0.7H8.2L9.1 0H4.9C3 0 1.3 1.4 1.3 3.1C1.3 4.8 2.6 6.1 4.5 6.1H4.9C4.7 6.3 4.7 6.5 4.7 6.8C4.7 7.3 5 7.6 5.3 8H4.6C2.3 8 0.5 9.5 0.5 11C0.5 12.5 2.5 13.5 4.8 13.5C7.4 13.5 8.9 12 8.9 10.5C8.8 9.2 8.4 8.5 7.3 7.7ZM5.1 5.6C4 5.6 3 4.4 2.8 3C2.6 1.6 3.3 0.5 4.4 0.5C5.5 0.5 6.5 1.7 6.7 3.1C6.9 4.5 6.2 5.7 5.1 5.6ZM4.7 12.8C3.1 12.8 1.9 11.8 1.9 10.6C1.9 9.4 3.3 8.4 4.9 8.4C5.3 8.4 5.6 8.5 5.9 8.6C6.8 9.2 7.4 9.5 7.6 10.2C7.6 10.3 7.7 10.5 7.7 10.6C7.7 11.8 6.9 12.8 4.7 12.8Z" fill="#F61C0D"></path>
                                            </svg>