<svg xmlns="http://www.w3.org/2000/svg" width="18" height="16" viewBox="0 0 18 16" fill="none">
                                                <path d="M4.29979 16V5.20483H0.711696V16H4.29979ZM2.50621 3.73004C3.75744 3.73004 4.53627 2.9011 4.53627 1.8652C4.51296 0.805935 3.75748 0 2.52995 0C1.30261 0 0.5 0.805951 0.5 1.8652C0.5 2.90115 1.27864 3.73004 2.48278 3.73004H2.50609H2.50621ZM6.28579 16H9.87388V9.97145C9.87388 9.64881 9.89719 9.3265 9.99194 9.09586C10.2513 8.45124 10.8417 7.78359 11.8329 7.78359C13.1313 7.78359 13.6507 8.77354 13.6507 10.2247V15.9999H17.2386V9.81007C17.2386 6.49422 15.4684 4.95139 13.1077 4.95139C11.172 4.95139 10.3222 6.03334 9.85001 6.77025H9.87396V5.2046H6.28587C6.33295 6.21756 6.28587 15.9998 6.28587 15.9998L6.28579 16Z" fill="#0073B1"></path>
                                            </svg>