<svg width="176" height="60" viewBox="0 0 176 60" fill="none" xmlns="http://www.w3.org/2000/svg">
<path d="M172.737 11.8449C171.288 11.8449 170.133 10.6909 170.133 9.24092C170.133 7.79096 171.288 6.6665 172.737 6.6665C174.158 6.6665 175.312 7.79096 175.312 9.24092C175.312 10.6909 174.158 11.8449 172.737 11.8449ZM170.489 28.9485V14.153H175.046V28.9485H170.489Z" fill="url(#paint0_linear_1201_4274)"/>
<path d="M166.767 20.3967H159.073V28.9485H154.279V7.05118H168.217V11.4898H159.073V16.0764H166.767V20.3967Z" fill="url(#paint1_linear_1201_4274)"/>
<path d="M140.329 28.9485H135.772V14.153H140.062L140.358 15.6917C141.276 14.4193 142.962 13.6796 144.886 13.6796C148.407 13.6796 150.449 15.9285 150.449 19.8049V28.9485H145.892V20.8998C145.892 19.0355 144.856 17.8223 143.288 17.8223C141.483 17.8223 140.329 19.0059 140.329 20.8406V28.9485Z" fill="url(#paint2_linear_1201_4274)"/>
<path d="M125.616 29.3332C121.148 29.3332 117.952 26.0782 117.952 21.5212C117.952 16.905 121.059 13.6796 125.528 13.6796C130.173 13.6796 133.073 16.7274 133.073 21.5508V22.7048L122.332 22.764C122.598 24.717 123.693 25.6343 125.705 25.6343C127.421 25.6343 128.635 25.0129 128.96 23.9476H133.132C132.6 27.2322 129.67 29.3332 125.616 29.3332ZM125.557 17.3784C123.752 17.3784 122.746 18.1774 122.391 19.9528H128.546C128.546 18.3845 127.392 17.3784 125.557 17.3784Z" fill="url(#paint3_linear_1201_4274)"/>
<path d="M108.596 29.3332C104.127 29.3332 100.932 26.0782 100.932 21.5212C100.932 16.905 104.039 13.6796 108.507 13.6796C113.153 13.6796 116.053 16.7274 116.053 21.5508V22.7048L105.311 22.764C105.577 24.717 106.672 25.6343 108.685 25.6343C110.401 25.6343 111.614 25.0129 111.94 23.9476H116.112C115.579 27.2322 112.65 29.3332 108.596 29.3332ZM108.537 17.3784C106.732 17.3784 105.725 18.1774 105.37 19.9528H111.525C111.525 18.3845 110.371 17.3784 108.537 17.3784Z" fill="url(#paint4_linear_1201_4274)"/>
<path d="M99.8597 14.153V18.4437H98.4097C95.8057 18.4437 94.2374 19.5977 94.2374 22.5272V28.9485H89.6804V14.1826H93.9711L94.2078 16.3723C94.8292 14.9224 96.1312 13.9459 98.1138 13.9459C98.6464 13.9459 99.2382 14.005 99.8597 14.153Z" fill="url(#paint5_linear_1201_4274)"/>
<path d="M76.4005 11.1939C72.4353 11.1939 70.3935 13.9755 70.3935 18.207C70.3935 22.616 72.8792 24.8058 76.3709 24.8058C79.981 24.8058 81.5789 22.8528 81.7861 20.5743H75.9862V16.3723H86.2839V28.9485H82.1707L81.9044 26.9659C80.7208 28.3567 78.3535 29.274 75.7495 29.274C69.6242 29.274 65.3335 24.7762 65.3335 18.059C65.3335 11.4602 69.7425 6.69609 76.5189 6.69609C81.7565 6.69609 85.7808 9.77355 86.2839 14.5081H81.2534C80.6912 12.2 78.679 11.1939 76.4005 11.1939Z" fill="url(#paint6_linear_1201_4274)"/>
<path d="M159.01 50.1269H157.107V30.9331H159.01L166.007 47.8483L173.003 30.9331H174.933V50.1269H173.03V41.0125C173.03 37.6616 173.084 36.1873 173.191 34.8737L166.945 50.1269H165.095L158.849 34.9541C158.957 35.6779 159.01 37.7957 159.01 40.7176V50.1269Z" fill="#04416D"/>
<path d="M140.096 50.1269H138.139L145.189 30.9331H147.575L154.705 50.1269H152.695L150.818 45.0335H141.972L140.096 50.1269ZM146.127 33.6406L142.562 43.3447H150.202L146.61 33.6406C146.529 33.3725 146.395 33.0509 146.369 32.8632C146.342 33.024 146.234 33.3725 146.127 33.6406Z" fill="#04416D"/>
<path d="M122.915 50.1269H120.985V30.9331H122.942L133.504 46.91V30.9331H135.407V50.1269H133.504L122.915 34.1499V50.1269Z" fill="#04416D"/>
<path d="M104.576 32.7024V30.9331H118.328V32.7024H112.404V50.1269H110.474V32.7024H104.576Z" fill="#04416D"/>
<path d="M102.668 50.1269H91.1678V30.9331H102.641V32.7024H93.0979V39.6185H101.757V41.361H93.0979V48.3576H102.668V50.1269Z" fill="#04416D"/>
<path d="M86.5009 30.9331V50.1269H84.5708V30.9331H86.5009Z" fill="#04416D"/>
<path d="M72.6786 50.1269L65.3335 30.9331H67.3976L72.5178 44.283C72.9199 45.3284 73.2952 46.3739 73.7241 47.7142C74.1262 46.3203 74.6087 44.9799 74.9036 44.2561L79.9969 30.9331H81.9806L74.6891 50.1269H72.6786Z" fill="#04416D"/>
<path d="M18.0249 44.0616C25.1401 44.0526 38.779 44.9419 44.9173 34.7416C51.0556 24.5413 47.7963 11.5255 47.7963 11.5255C47.7963 11.5255 44.9026 19.1419 30.838 22.4364C16.4571 25.8057 12.9244 35.8895 12.9244 35.8895C12.9244 35.8895 30.3815 39.9137 39.546 26.316C39.546 26.316 33.0671 42.0366 10.1357 38.0028C10.1357 38.0028 12.8585 25.0311 29.9545 19.2917C40.756 15.6657 45.998 9.94869 48.3763 6.28741C45.5172 4.07041 42.2054 2.33675 38.5281 1.24586C22.6478 -3.46407 5.9558 5.59152 1.24582 21.4716C-1.573 30.9753 0.539032 40.7684 6.0928 48.1115C8.55182 45.9354 12.322 44.0686 18.0249 44.0616Z" fill="url(#paint7_linear_1201_4274)"/>
<path d="M56.7494 16.436C54.3615 9.11468 50.1534 2.79785 50.1534 2.79785C50.1534 2.79849 61.0048 33.4447 41.5395 44.088C25.953 52.6109 10.1407 39.4459 1.77832 54.8094C1.78024 54.8075 4.18933 52.0559 8.12146 50.522C11.6413 54.2818 16.1771 57.1839 21.4716 58.7543C37.3525 63.4642 54.0439 54.4086 58.7539 38.5285C61.0241 30.875 60.0964 23.0338 56.7494 16.436Z" fill="#04416D"/>
<defs>
<linearGradient id="paint0_linear_1201_4274" x1="120.323" y1="6.6665" x2="120.323" y2="29.3332" gradientUnits="userSpaceOnUse">
<stop stop-color="#25A157"/>
<stop offset="1" stop-color="#0EEA66"/>
</linearGradient>
<linearGradient id="paint1_linear_1201_4274" x1="120.323" y1="6.6665" x2="120.323" y2="29.3332" gradientUnits="userSpaceOnUse">
<stop stop-color="#25A157"/>
<stop offset="1" stop-color="#0EEA66"/>
</linearGradient>
<linearGradient id="paint2_linear_1201_4274" x1="120.323" y1="6.6665" x2="120.323" y2="29.3332" gradientUnits="userSpaceOnUse">
<stop stop-color="#25A157"/>
<stop offset="1" stop-color="#0EEA66"/>
</linearGradient>
<linearGradient id="paint3_linear_1201_4274" x1="120.323" y1="6.6665" x2="120.323" y2="29.3332" gradientUnits="userSpaceOnUse">
<stop stop-color="#25A157"/>
<stop offset="1" stop-color="#0EEA66"/>
</linearGradient>
<linearGradient id="paint4_linear_1201_4274" x1="120.323" y1="6.6665" x2="120.323" y2="29.3332" gradientUnits="userSpaceOnUse">
<stop stop-color="#25A157"/>
<stop offset="1" stop-color="#0EEA66"/>
</linearGradient>
<linearGradient id="paint5_linear_1201_4274" x1="120.323" y1="6.6665" x2="120.323" y2="29.3332" gradientUnits="userSpaceOnUse">
<stop stop-color="#25A157"/>
<stop offset="1" stop-color="#0EEA66"/>
</linearGradient>
<linearGradient id="paint6_linear_1201_4274" x1="120.323" y1="6.6665" x2="120.323" y2="29.3332" gradientUnits="userSpaceOnUse">
<stop stop-color="#25A157"/>
<stop offset="1" stop-color="#0EEA66"/>
</linearGradient>
<linearGradient id="paint7_linear_1201_4274" x1="24.3304" y1="0" x2="24.3304" y2="48.1115" gradientUnits="userSpaceOnUse">
<stop stop-color="#25A157"/>
<stop offset="1" stop-color="#0EEA66"/>
</linearGradient>
</defs>
</svg>
