<svg width="89" height="30" viewBox="0 0 89 30" fill="none" xmlns="http://www.w3.org/2000/svg">
<path d="M87.0454 5.92254C86.3204 5.92254 85.7434 5.34552 85.7434 4.62054C85.7434 3.89556 86.3204 3.33333 87.0454 3.33333C87.7556 3.33333 88.3326 3.89556 88.3326 4.62054C88.3326 5.34552 87.7556 5.92254 87.0454 5.92254ZM85.9209 14.4743V7.07659H88.1995V14.4743H85.9209Z" fill="white"/>
<path d="M84.06 10.1984H80.2132V14.4743H77.8163V3.52567H84.785V5.74499H80.2132V8.03829H84.06V10.1984Z" fill="white"/>
<path d="M70.841 14.4743H68.5625V7.07659H70.7079L70.8559 7.84595C71.3145 7.20974 72.1578 6.83986 73.1196 6.83986C74.8802 6.83986 75.9011 7.96431 75.9011 9.90252V14.4743H73.6226V10.45C73.6226 9.51784 73.1048 8.91123 72.3206 8.91123C71.4181 8.91123 70.841 9.50304 70.841 10.4204V14.4743Z" fill="white"/>
<path d="M63.4848 14.6667C61.2507 14.6667 59.6528 13.0392 59.6528 10.7607C59.6528 8.45257 61.2063 6.83986 63.4404 6.83986C65.7633 6.83986 67.2133 8.36379 67.2133 10.7755V11.3525L61.8425 11.3821C61.9757 12.3586 62.5231 12.8172 63.5292 12.8172C64.3873 12.8172 64.9939 12.5065 65.1567 11.9739H67.2429C66.9765 13.6162 65.5118 14.6667 63.4848 14.6667ZM63.4552 8.68929C62.5527 8.68929 62.0497 9.08877 61.8721 9.9765H64.9496C64.9496 9.19234 64.3725 8.68929 63.4552 8.68929Z" fill="white"/>
<path d="M54.9745 14.6667C52.7404 14.6667 51.1425 13.0392 51.1425 10.7607C51.1425 8.45257 52.696 6.83986 54.9301 6.83986C57.253 6.83986 58.703 8.36379 58.703 10.7755V11.3525L53.3322 11.3821C53.4654 12.3586 54.0128 12.8172 55.0189 12.8172C55.8771 12.8172 56.4837 12.5065 56.6464 11.9739H58.7326C58.4663 13.6162 57.0015 14.6667 54.9745 14.6667ZM54.9449 8.68929C54.0424 8.68929 53.5394 9.08877 53.3618 9.9765H56.4393C56.4393 9.19234 55.8623 8.68929 54.9449 8.68929Z" fill="white"/>
<path d="M50.6065 7.07658V9.22193H49.8815C48.5795 9.22193 47.7954 9.79895 47.7954 11.2637V14.4743H45.5168V7.09138H47.6622L47.7806 8.18624C48.0913 7.46126 48.7423 6.97301 49.7336 6.97301C49.9999 6.97301 50.2958 7.0026 50.6065 7.07658Z" fill="white"/>
<path d="M38.8769 5.59704C36.8943 5.59704 35.8734 6.98781 35.8734 9.10357C35.8734 11.3081 37.1163 12.403 38.8621 12.403C40.6672 12.403 41.4661 11.4265 41.5697 10.2872H38.6698V8.18625H43.8186V14.4743H41.762L41.6289 13.483C41.0371 14.1784 39.8534 14.6371 38.5514 14.6371C35.4888 14.6371 33.3434 12.3882 33.3434 9.02959C33.3434 5.7302 35.5479 3.34813 38.9361 3.34813C41.5549 3.34813 43.5671 4.88686 43.8186 7.25413H41.3034C41.0223 6.10008 40.0162 5.59704 38.8769 5.59704Z" fill="white"/>
<path d="M80.1817 25.0635H79.2301V15.4667H80.1817L83.68 23.9242L87.1783 15.4667H88.1434V25.0635H87.1917V20.5064C87.1917 18.8309 87.2185 18.0937 87.2722 17.437L84.1492 25.0635H83.2243L80.1013 17.4772C80.1549 17.8391 80.1817 18.8979 80.1817 20.3589V25.0635Z" fill="white"/>
<path d="M70.7245 25.0635H69.746L73.2712 15.4667H74.4641L78.0294 25.0635H77.0241L76.0859 22.5169H71.6627L70.7245 25.0635ZM73.7403 16.8204L71.9576 21.6725H75.7776L73.9815 16.8204C73.9413 16.6864 73.8743 16.5255 73.8609 16.4317C73.8475 16.5121 73.7939 16.6864 73.7403 16.8204Z" fill="white"/>
<path d="M62.1343 25.0635H61.1693V15.4667H62.1477L67.4287 23.4551V15.4667H68.3803V25.0635H67.4287L62.1343 17.0751V25.0635Z" fill="white"/>
<path d="M52.9649 16.3513V15.4667H59.8409V16.3513H56.8787V25.0635H55.9137V16.3513H52.9649Z" fill="white"/>
<path d="M52.0107 25.0635H46.2606V15.4667H51.9972V16.3513H47.2256V19.8094H51.5549V20.6806H47.2256V24.1789H52.0107V25.0635Z" fill="white"/>
<path d="M43.9271 15.4667V25.0635H42.9621V15.4667H43.9271Z" fill="white"/>
<path d="M37.016 25.0635L33.3434 15.4667H34.3755L36.9355 22.1416C37.1366 22.6643 37.3242 23.1871 37.5387 23.8572C37.7397 23.1602 37.981 22.4901 38.1284 22.1282L40.6751 15.4667H41.667L38.0212 25.0635H37.016Z" fill="white"/>
<path d="M9.68921 22.0308C13.2468 22.0263 20.0663 22.4709 23.1354 17.3708C26.2045 12.2707 24.5749 5.76275 24.5749 5.76275C24.5749 5.76275 23.128 9.57096 16.0957 11.2182C8.90528 12.9029 7.13896 17.9447 7.13896 17.9447C7.13896 17.9447 15.8675 19.9569 20.4498 13.158C20.4498 13.158 17.2103 21.0183 5.7446 19.0014C5.7446 19.0014 7.10599 12.5155 15.654 9.64586C21.0547 7.83283 23.6757 4.97435 24.8649 3.1437C23.4353 2.0352 21.7795 1.16838 19.9408 0.622929C12.0007 -1.73203 3.65466 2.79576 1.29967 10.7358C-0.109742 15.4877 0.946274 20.3842 3.72316 24.0557C4.95267 22.9677 6.83775 22.0343 9.68921 22.0308Z" fill="white"/>
<path d="M29.0515 8.21793C27.8576 4.55728 25.7535 1.39887 25.7535 1.39887C25.7535 1.39919 31.1793 16.7223 21.4466 22.0439C13.6534 26.3054 5.74717 19.7229 1.566 27.4046C1.56696 27.4037 2.7715 26.0279 4.73757 25.2609C6.49749 27.1409 8.76541 28.5919 11.4126 29.3771C19.3531 31.732 27.6988 27.2042 30.0538 19.2642C31.1889 15.4374 30.725 11.5169 29.0515 8.21793Z" fill="white"/>
</svg>
