<svg xmlns="http://www.w3.org/2000/svg" width="15" height="12" viewBox="0 0 15 12" fill="none">
                                                <g clip-path="url(#clip0_1_1455)">
                                                    <path opacity="0.75" d="M13.4 3C13.4 3.1 13.4 3.3 13.4 3.4C13.4 5.5 12.6 7.6 11.1 9.2C9.6 11 7.3 11.9 5 11.8C3.4 11.8 1.8 11.3 0.5 10.5C0.7 10.5 1 10.5 1.2 10.5C2.5 10.5 3.8 10.1 4.8 9.2C4.2 9.2 3.6 9 3.1 8.6C2.6 8.2 2.3 7.7 2.1 7.1C2.3 7.1 2.5 7.1 2.7 7.1C3 7.1 3.2 7.1 3.5 7C2.8 6.9 2.2 6.6 1.7 6C1.3 5.5 1 4.9 1.1 4.2C1.5 4.4 1.9 4.5 2.4 4.5C1.6 4 1 3.1 1.1 2.1C1.1 1.6 1.3 1.1 1.5 0.6C3 2.5 5.2 3.6 7.6 3.7C7.5 3.4 7.5 3.2 7.5 3C7.5 1.4 8.8 0 10.5 0C11.3 0 12.1 0.3 12.7 0.9C13.4 0.8 14 0.6 14.6 0.2C14.4 0.9 13.9 1.5 13.3 1.8C13.9 1.7 14.4 1.6 15 1.3C14.5 2 14 2.5 13.4 3Z" fill="#55ACEE"></path>
                                                </g>
                                                <defs>
                                                    <clipPath id="clip0_1_1455">
                                                        <rect width="14.4" height="11.7" fill="white" transform="translate(0.5)"></rect>
                                                    </clipPath>
                                                </defs>
                                            </svg>